<svg width="79" height="71" viewBox="0 0 79 71" fill="none" xmlns="http://www.w3.org/2000/svg">
<path fill-rule="evenodd" clip-rule="evenodd" d="M20.4747 43.8616C21.1311 44.3994 21.4197 45.2668 21.2164 46.0906L16.2975 66.0198C15.8341 67.8971 17.8442 69.4161 19.5237 68.4578L38.4125 57.68C39.0881 57.2945 39.9171 57.2944 40.5928 57.6798L59.4809 68.4534C61.1606 69.4115 63.1705 67.8921 62.7067 66.0148L57.784 46.0859C57.5804 45.2619 57.869 44.3944 58.5256 43.8565L74.7882 30.5338C76.3187 29.28 75.5454 26.8006 73.5735 26.6392L51.9148 24.8666C51.1158 24.8012 50.4156 24.3063 50.0873 23.575L41.5098 4.47057C40.7322 2.73863 38.2732 2.73873 37.4958 4.47072L28.9179 23.5798C28.5896 24.3112 27.8893 24.8061 27.0903 24.8715L5.4266 26.6443C3.4547 26.8056 2.68135 29.285 4.21185 30.5388L20.4747 43.8616ZM40.5962 51.8729C39.919 51.4816 39.0849 51.4792 38.4055 51.8667L27.4776 58.0995C25.8005 59.0561 23.7926 57.5426 24.2504 55.6669L27.0239 44.3021C27.2238 43.483 26.938 42.6217 26.288 42.0846L17.0347 34.4383C15.5108 33.1791 16.2918 30.7052 18.2625 30.5492L30.308 29.5959C31.0947 29.5336 31.7878 29.0547 32.1244 28.3409L37.4684 17.0063C38.269 15.3081 40.6919 15.3286 41.4638 17.04L46.5493 28.316C46.8776 29.0439 47.5745 29.5367 48.3702 29.6037L60.7444 30.6456C62.7144 30.8115 63.4829 33.2893 61.9526 34.5409L52.7258 42.0866C52.071 42.6221 51.7812 43.4857 51.9804 44.3078L54.7561 55.7608C55.2118 57.6413 53.1926 59.1519 51.5173 58.1838L40.5962 51.8729Z" fill="#1E4391"/>
</svg>
