<svg width="79" height="70" viewBox="0 0 79 70" fill="none" xmlns="http://www.w3.org/2000/svg">
<g clip-path="url(#clip0_739_4737)">
<path fill-rule="evenodd" clip-rule="evenodd" d="M20.4562 43.229C21.1228 43.7673 21.4161 44.6436 21.2081 45.4747L16.3093 65.0428C15.8404 66.9158 17.8393 68.4412 19.5221 67.4945L38.4242 56.861C39.0938 56.4843 39.9115 56.4843 40.5812 56.8609L59.4825 67.4902C61.1655 68.4366 63.1642 66.9108 62.6949 65.0379L57.7923 45.4701C57.584 44.6389 57.8774 43.7624 58.544 43.2239L74.7146 30.1632C76.2604 28.9146 75.4899 26.4187 73.5092 26.2589L51.9088 24.5158C51.113 24.4516 50.4144 23.9613 50.0836 23.2347L41.505 4.39701C40.7227 2.6793 38.2827 2.67939 37.5006 4.39715L28.9216 23.2394C28.5908 23.9661 27.8922 24.4565 27.0963 24.5207L5.49094 26.2638C3.51023 26.4236 2.73964 28.9196 4.28552 30.1682L20.4562 43.229ZM40.5846 51.1357C39.9133 50.7533 39.0906 50.751 38.4172 51.1296L27.4758 57.2822C25.7955 58.2271 23.7987 56.7073 24.262 54.836L27.0157 43.7112C27.2203 42.8848 26.9297 42.0146 26.2697 41.4769L17.108 34.0129C15.5687 32.7589 16.347 30.2684 18.3264 30.114L30.3144 29.1785C31.0977 29.1174 31.789 28.6432 32.1279 27.9343L37.4737 16.7557C38.2788 15.0721 40.6827 15.0925 41.459 16.7896L46.5456 27.909C46.8764 28.6321 47.5717 29.1205 48.3642 29.1863L60.6801 30.2086C62.6588 30.3729 63.4247 32.8674 61.879 34.1137L52.7441 41.4791C52.0792 42.0151 51.7847 42.8875 51.9886 43.7169L54.7446 54.9287C55.2058 56.8048 53.1978 58.3218 51.5192 57.3654L40.5846 51.1357Z" fill="#D47C39"/>
</g>
<defs>
<clipPath id="clip0_739_4737">
<rect width="79" height="70" fill="white"/>
</clipPath>
</defs>
</svg>
