<svg width="79" height="70" viewBox="0 0 79 70" fill="none" xmlns="http://www.w3.org/2000/svg">
<path d="M37.9561 4.60449C38.5604 3.27717 40.4454 3.27718 41.0498 4.60449L49.6289 23.4424C50.035 24.3337 50.8918 24.9357 51.8682 25.0146L73.4688 26.7568C74.9993 26.8803 75.5949 28.8096 74.4004 29.7744L58.2295 42.835C57.4115 43.4958 57.052 44.5717 57.3076 45.5918L62.21 65.1592C62.5726 66.6064 61.028 67.7859 59.7275 67.0547L40.8262 56.4248C40.0043 55.9627 39.0005 55.9625 38.1787 56.4248L19.2773 67.0586C17.977 67.7901 16.4316 66.6114 16.7939 65.1641L21.6934 45.5957C21.9485 44.5758 21.5884 43.5004 20.7705 42.8398L4.59961 29.7793C3.40506 28.8145 4.00071 26.8852 5.53125 26.7617L27.1367 25.0195C28.1134 24.9407 28.9709 24.3381 29.377 23.4463L37.9561 4.60449ZM41.9141 16.582C40.9613 14.4992 38.0106 14.4738 37.0225 16.54L31.6768 27.7188C31.4148 28.2664 30.8806 28.6325 30.2754 28.6797L18.2871 29.6152C15.8582 29.8051 14.9032 32.8614 16.792 34.4004L25.9541 41.8643C26.4641 42.2797 26.6883 42.9523 26.5303 43.5908L23.7764 54.7158C23.2079 57.0124 25.6585 58.8774 27.7207 57.7178L38.6621 51.5654C39.1825 51.2728 39.8182 51.2748 40.3369 51.5703L51.2715 57.7998C53.3316 58.9735 55.7962 57.112 55.2305 54.8096L52.4736 43.5977C52.3161 42.9568 52.5439 42.2824 53.0576 41.8682L62.1924 34.5029C64.0893 32.9734 63.15 29.9117 60.7217 29.71L48.4053 28.6885C47.793 28.6376 47.2556 28.2599 47 27.7012L41.9141 16.582ZM37.9248 16.9717C38.5469 15.6707 40.404 15.6867 41.0039 16.998L46.0908 28.1172C46.4968 29.0046 47.3507 29.6038 48.3232 29.6846L60.6387 30.707C62.1677 30.834 62.7597 32.7615 61.5654 33.7246L52.4307 41.0898C51.6148 41.7477 51.2529 42.8182 51.5029 43.8359L54.2588 55.0479C54.6152 56.4976 53.0638 57.6697 51.7666 56.9307L40.832 50.7012C40.0082 50.2319 38.9983 50.2286 38.1719 50.6934L27.2305 56.8467C25.9321 57.5764 24.3892 56.402 24.7471 54.9561L27.501 43.8311C27.7519 42.817 27.3959 41.7487 26.5859 41.0889L17.4238 33.625C16.2346 32.656 16.8358 30.7317 18.3652 30.6123L30.3535 29.6768C31.3147 29.6017 32.1631 29.0201 32.5791 28.1504L37.9248 16.9717Z" fill="#1E4391" stroke="#1E4391"/>
</svg>
